<svg version="1.0" xmlns="http://www.w3.org/2000/svg" width="700pt" height="700pt" viewBox="0 0 700 700"><g transform="translate(0.000000,700.000000) scale(0.100000,-0.100000)" fill="#000" stroke="none"><path d="M4111 5542c-21-3 32-60 380-408 320-321 401-407 389-414-9-5-41-28-72-52s-69-52-84-63c-44-32-175-140-254-210-57-50-333-326-380-380-212-242-446-589-560-832-14-29-27-53-30-53s-21 30-39 68c-85 173-238 408-383 585-76 94-285 310-373 385-52 45-253 199-315 241-376 257-914 463-1350 517-55 7-127 15-160 20-19 2-94 6-166 9l-130 4v-289c-1-160 2-290 5-291s31-2 61-4c122-7 226-15 250-20 14-2 41-6 60-8 188-23 485-106 656-182 429-192 754-439 1039-790 47-57 49-61 136-191 169-253 296-546 364-839 30-132 34-150 41-210 3-33 8-67 9-76 3-14-25-16-263-17-147 0-278-1-292-1l-25-1v-290-290l25-1c31-1 1666 0 17e2.0l25 1v284c0 156-3 288-7 292s-136 7-293 7h-285l5 26c35 209 40 237 69 349 160 612 566 1202 1156 1678 76 60 253 194 279 209 9 5 130-109 420-399l406-406v1020 1020l-30 1c-136 2-1965 3-1984 1z"/></g></svg>